<svg width="32" height="32" viewBox="0 0 32 32" fill="none" xmlns="http://www.w3.org/2000/svg">
<rect width="32" height="32" rx="5.73669" fill="#061E28"/>
<path d="M15.2727 21.5H11.576V10.5909H15.3473C16.4304 10.5909 17.3608 10.8093 18.1385 11.2461C18.9197 11.6793 19.5199 12.3026 19.9389 13.1158C20.358 13.929 20.5675 14.902 20.5675 16.0348C20.5675 17.1712 20.3562 18.1477 19.9336 18.9645C19.5146 19.7812 18.9091 20.408 18.1172 20.8448C17.3288 21.2816 16.3807 21.5 15.2727 21.5ZM13.5522 19.7901H15.1768C15.9368 19.7901 16.5707 19.6516 17.0785 19.3746C17.5863 19.0941 17.968 18.6768 18.2237 18.1229C18.4794 17.5653 18.6072 16.8693 18.6072 16.0348C18.6072 15.2003 18.4794 14.5078 18.2237 13.9574C17.968 13.4034 17.5898 12.9897 17.0891 12.7163C16.592 12.4393 15.9741 12.3008 15.2354 12.3008H13.5522V19.7901Z" fill="#F4EEE4"/>
</svg>
